# xmcd
#
# Track frame offsets:
#	150
#	12225
#	23325
#	37037
#	51362
#	61250
#	73837
#	90262
#	106562
#	118887
#	134350
#	150150
#	162050
#	176075
#	189850
#	205375
#	236975
#	257187
#	272375
#	289200
#	303200
#	325812
#
# Disc length: 4590 seconds
#
# Revision: 0
# Processed by: cddbd v1.4PL0 Copyright (c) Steve Scherf et al.
# Submitted via: OrangeCD 4.1
#
DISCID=2611ec16
DTITLE=Larry Gatlin and The Gatlin Brothers - Greatest Hits - Straight Ahead
DYEAR=1900
DGENRE=
TTITLE0=Broken Lady
TTITLE1=Night Time Magic
TTITLE2=Sweet Becky Walker
TTITLE3=I Just Wish You Were Someone To Love
TTITLE4=Delta Dirt
TTITLE5=I Don't Wanna Cry
TTITLE6=Do It Again Tonight
TTITLE7=Bitter They Are, Harder They Fall
TTITLE8=Statues Without Hearts
TTITLE9=The Heart
TTITLE10=Love Is Just A Game
TTITLE11=All The Gold In California
TTITLE12=Piece By Piece
TTITLE13=The Way I Did Before
TTITLE14=Can't Cry Anymore
TTITLE15=Gypsy Flower Child
TTITLE16=We're Number One
TTITLE17=Taking Somebody With Me When I Fall
TTITLE18=How Much Is A Man Supposed To Take
TTITLE19=Hold Me Closer
TTITLE20=Midnight Choir (Mogen David)
TTITLE21=I've Done Enough Dyin' Today
EXTD=
EXTT0=
EXTT1=
EXTT2=
EXTT3=
EXTT4=
EXTT5=
EXTT6=
EXTT7=
EXTT8=
EXTT9=
EXTT10=
EXTT11=
EXTT12=
EXTT13=
EXTT14=
EXTT15=
EXTT16=
EXTT17=
EXTT18=
EXTT19=
EXTT20=
EXTT21=
PLAYORDER=
